<?xml version="1.0" encoding="utf-8"?>
<!-- Generator: Adobe Illustrator 26.5.0, SVG Export Plug-In . SVG Version: 6.00 Build 0)  -->
<svg version="1.1" id="Capa_1" xmlns="http://www.w3.org/2000/svg" xmlns:xlink="http://www.w3.org/1999/xlink" x="0px" y="0px"
	 viewBox="0 0 1031.04 1254.13" style="enable-background:new 0 0 1031.04 1254.13;" xml:space="preserve">
<style type="text/css">
	.st0{fill:#B194E6;}
	.st1{fill:#006E32;}
	.st2{fill:url(#SVGID_00000003099696044527358580000016476925910112476302_);}
	.st3{fill:#102A58;}
	.st4{fill:url(#SVGID_00000023990657903111141330000005921853433210702465_);}
	.st5{fill:url(#SVGID_00000111888237017200811350000006165730972696713122_);}
	.st6{fill:url(#SVGID_00000072965169412103001830000013119339312214639023_);}
	.st7{fill:#DFE6ED;}
	.st8{clip-path:url(#SVGID_00000183929035773632091160000000031937902182446989_);}
	.st9{clip-path:url(#SVGID_00000161606601830489961200000009554783128266719887_);}
	.st10{fill:#FF7A0B;}
	.st11{fill:url(#SVGID_00000110472653312070796260000017420351438311946628_);}
	.st12{fill:#FFFFFF;}
	.st13{fill:#FF6D00;}
	.st14{fill:url(#SVGID_00000061434280538894394010000016125736452554886586_);}
	.st15{fill:url(#SVGID_00000093855808706798988860000018340059857088990631_);}
	.st16{fill:url(#SVGID_00000029011631122305805640000009540392820782280076_);}
	.st17{fill:url(#SVGID_00000171679068101763000490000009706230820681980575_);}
	.st18{fill:url(#SVGID_00000171719487818940530190000001153334766934144933_);}
	.st19{fill:url(#SVGID_00000018916432337500393860000013360603018333775271_);}
	.st20{fill:url(#SVGID_00000089558422817941008310000006567872157996523688_);}
	.st21{fill:url(#SVGID_00000116218321734063181470000012154274023053134505_);}
	.st22{fill:#FFC800;}
	.st23{opacity:0.05;}
	.st24{fill:none;stroke:#000000;stroke-width:7;stroke-miterlimit:10;}
	.st25{fill:url(#SVGID_00000005963653985616784840000011832926349403376035_);}
	.st26{fill:url(#SVGID_00000081620084059788737760000008428858020473120156_);}
	.st27{fill:url(#SVGID_00000018195508334170375620000007181139379324017055_);}
	.st28{fill:url(#SVGID_00000128452288203890860310000004599604562568672189_);}
	.st29{fill:#FFEE00;}
	.st30{opacity:0.35;}
	.st31{fill:#371A45;}
	.st32{fill:#220F2D;}
	.st33{opacity:0.5;}
	.st34{fill:#22A7F0;}
	.st35{opacity:0.2;fill:#3C1344;enable-background:new    ;}
	.st36{fill:#3C1344;}
	.st37{opacity:0.25;}
	.st38{fill:#EAAD4C;}
	.st39{fill:#F48E2B;}
	.st40{fill:#F48200;}
	.st41{fill:#E15D02;}
	.st42{fill:#E38308;}
	.st43{fill:#00A8F2;}
	.st44{opacity:0.7;}
	.st45{fill:#031324;}
	.st46{fill:#FFCC00;}
</style>
<g>
	<g>
		<g>
			<path class="st29" d="M598.57,534.86l10.87,38.95l5.53,19.84l95.47,342.15c0,0,22.96-7.83,52.9-20.81
				c5.86-2.54,11.98-5.27,18.26-8.18c46.75-21.66,101.66-53.13,115.03-85.94c19.98-49.07-39.46-232.38-94.95-293.62
				c-25.43-28.08-99.77-17.63-151.1-6.13c-5.74,1.27-11.19,2.58-16.25,3.84C613,530.25,598.57,534.86,598.57,534.86z"/>
		</g>
		<g class="st30">
			<path class="st31" d="M609.44,573.81l5.53,19.84l75.81,271.67l19.67,70.48c0,0,0.48-0.17,1.39-0.48c0.26-0.1,0.56-0.2,0.89-0.31
				c0.26-0.1,0.55-0.2,0.84-0.3c0.22-0.07,0.45-0.16,0.67-0.23c0.08-0.04,0.19-0.06,0.27-0.1c0.41-0.15,0.87-0.31,1.35-0.49
				c0.11-0.02,0.21-0.07,0.33-0.11c0.39-0.15,0.8-0.29,1.25-0.45c0.6-0.21,1.21-0.44,1.86-0.68c0.46-0.18,0.96-0.35,1.45-0.53
				c0.51-0.19,1.02-0.38,1.55-0.58c0.67-0.24,1.36-0.51,2.08-0.77c1.45-0.55,2.98-1.12,4.59-1.75c1.43-0.53,2.93-1.11,4.49-1.73
				c1.8-0.71,3.69-1.43,5.64-2.21c7.21-2.87,15.43-6.24,24.26-10.07c1.72-0.74,3.46-1.51,5.23-2.29c1.23-0.54,2.49-1.1,3.74-1.67
				c3.04-1.36,6.15-2.77,9.28-4.23c46.77-21.67,101.66-53.13,115.02-85.94c16.47-40.4-20.91-171.84-65.64-251.19
				c28.83,72.6,47.01,154.72,34.6,185.17c-6.13,15.06-60.39-12.59-67.63-36.54c-18.66-61.77-54.75-137.22-126.75-165.22
				C669.34,552.36,637.8,567.55,609.44,573.81z"/>
		</g>
		<g>
			<path class="st31" d="M705.46,945.27L589.6,530.02l6.74-2.15c1.68-0.54,41.76-13.27,87.51-20.73
				c63.33-10.33,104.81-5.23,123.29,15.16c57.9,63.9,117.31,249.77,96.31,301.34c-25.29,62.09-183.89,116.82-190.63,119.12
				L705.46,945.27z M607.57,539.76L715.4,926.24c31.49-11.52,154.51-59.2,174.44-108.14c8.48-20.83,0.88-74.69-19.35-137.22
				c-20.75-64.09-49.19-121.08-74.23-148.71C767.28,500.19,656.12,525.16,607.57,539.76z"/>
		</g>
		<g>
			<path class="st29" d="M862.81,678.6l-64.52,26.75c-5.76,2.39-9.19,8.35-8.33,14.53c3.17,22.61,13.19,74.46,39.36,84.06
				c21.72,7.97,49.17-2.85,61-22.12c13.23-21.56-1.05-70.95-9.3-95.01C878.45,679.33,870.12,675.57,862.81,678.6z"/>
		</g>
		<g class="st30">
			<path class="st31" d="M789.97,719.88c3.15,22.61,13.18,74.46,39.35,84.05c21.73,7.97,49.17-2.84,61-22.12
				c8.13-13.26,5.86-37.05,0.99-58.99c0.51,11.59-1.33,21.75-5.29,29.32c-22.68,43.38-60.15,13.37-60.15,13.37
				s-1.27,10.7-4.54,12.36c-13.67,6.94-25.53-39.11-31.12-63.08C789.82,716.41,789.71,718.13,789.97,719.88z"/>
		</g>
		<g>
			<path class="st31" d="M844.69,813.91c-6.14,0-12.2-0.99-17.9-3.08c-28.9-10.6-40.04-60.9-44.1-89.94
				c-1.33-9.48,3.93-18.66,12.79-22.33L860,671.82l0,0c5.35-2.22,11.44-2.13,16.72,0.25c5.27,2.38,9.37,6.88,11.25,12.36
				c11.57,33.73,22.45,78.68,8.61,101.23C885.82,803.18,864.89,813.91,844.69,813.91z M868.07,684.89c-0.82,0-1.65,0.16-2.44,0.49
				l0,0l-64.52,26.75c-2.68,1.11-4.27,3.87-3.87,6.72c6.05,43.23,18.99,72.46,34.61,78.19c17.92,6.57,41.83-2.16,52.21-19.06
				c8.22-13.39,4.49-46.58-9.98-88.79c-0.58-1.68-1.78-3-3.4-3.73C869.84,685.08,868.95,684.89,868.07,684.89z M862.81,678.6h0.02
				H862.81z"/>
		</g>
		<g>
			<path class="st31" d="M864.26,808.85c-1.69-0.34-2.61-0.67-3.81-1.07c-1.11-0.4-2.2-0.81-3.23-1.29
				c-2.1-0.92-4.09-1.97-5.99-3.14c-3.78-2.35-7.33-4.99-10.41-8.05c-6.29-6-11.23-13.07-14.98-20.54
				c-1.8-3.77-3.52-7.55-4.84-11.47c-1.5-3.87-2.54-7.72-3.68-11.63c-1.09-3.91-2.05-7.86-2.8-11.87c-0.36-2.01-0.7-4.02-0.94-6.07
				c-0.23-2.09-0.42-4.02-0.34-6.37c0.04-1.07,0.93-1.9,2-1.87c1,0.03,1.8,0.82,1.86,1.8l0.01,0.21c0.1,1.63,0.46,3.66,0.85,5.51
				c0.4,1.89,0.91,3.77,1.43,5.64c1.08,3.74,2.36,7.45,3.76,11.1c1.44,3.62,2.86,7.37,4.58,10.78c1.57,3.52,3.49,6.83,5.43,10.09
				c4.02,6.43,8.97,12.16,14.69,16.64c2.81,2.32,5.91,4.16,9.05,5.73c1.58,0.78,3.2,1.44,4.81,1.96c0.81,0.29,1.61,0.5,2.4,0.7
				c0.71,0.18,1.72,0.36,1.99,0.37c3.6,0.1,6.44,3.09,6.35,6.69c-0.1,3.6-3.09,6.44-6.69,6.35c-0.37-0.01-0.74-0.05-1.09-0.12
				L864.26,808.85z"/>
		</g>
		<g>
			<path class="st31" d="M698.43,551.61c7.8-3.81,15.6-7.37,23.51-10.84c7.9-3.46,15.86-6.8,23.95-9.91
				c8.08-3.12,16.24-6.11,24.62-8.68c8.39-2.57,16.9-4.92,26-6.31c4.01-0.61,7.76,2.14,8.38,6.15c0.61,4.01-2.14,7.76-6.15,8.38
				c-0.17,0.03-0.33,0.04-0.49,0.06l-0.07,0.01c-7.92,0.65-16.11,2.28-24.24,4.17c-8.15,1.89-16.27,4.25-24.37,6.74
				c-8.1,2.49-16.15,5.22-24.16,8.09c-8,2.87-16.01,5.88-23.84,9.05l-0.04,0.02c-1.94,0.79-4.15-0.15-4.93-2.09
				C695.83,554.59,696.66,552.48,698.43,551.61z"/>
		</g>
	</g>
	<g>
		<path class="st29" d="M328.53,574.57c8.12,18.28,19.76,36.41,23.46,46.05l-19.08,33.62l-21.62,38.08
			c-10.89,1.26-21.34,2.2-31.42,2.8C99.8,706.25,46.87,619.27,40.95,577.67C29.23,495.31,76.18,443.06,97.87,421.8
			c3.3-3.22,7.01-6.47,11.12-9.71c71.62-56.42,259.07-109.23,313.26-34.04c30.54,42.33,9.46,114.84-85.41,143.46
			C313.6,528.51,318.32,551.65,328.53,574.57z"/>
	</g>
	<g class="st30">
		<path class="st31" d="M341.03,599.26c4.77,8.69,8.99,16.23,10.96,21.36l-40.7,71.7C105.88,716.12,47.2,621.6,40.95,577.67
			c-1.96-13.73-2.27-26.61-1.36-38.63c0.24,2.49,4.65,35.21,5.26,37.73c11.45,47.31,120.44,106.4,151.84,90.58
			c7.72-3.89,13.6-8.55,17.17-9.77c6.51-2.22,9.81,7.08,19.92,6.45c9.25-0.58,10.19-16.17,17.31-14.18
			c5.73,1.6,12.76,15.54,21.15,15.07L341.03,599.26z"/>
	</g>
	<g>
		<path class="st31" d="M248.67,703.49c-61.87,0-112.56-12.34-151.18-36.9c-41.59-26.44-60.24-62.74-63.82-87.88
			c-8.63-60.69,11.24-115.24,59.06-162.15c45.03-44.16,164.93-89.74,252.04-82.3c38.87,3.32,66.95,16.61,83.45,39.5
			c14.89,20.64,18.44,47.19,9.76,72.82c-12.49,36.88-48.58,66.75-99.02,81.96c-54.13,16.33-117.22,43.48-124.77,58.87
			c-0.35,0.72-0.45,1.22-0.38,1.37c1.45,3.79-0.43,8.04-4.22,9.49c-3.79,1.46-8.03-0.43-9.49-4.22c-1.11-2.88-1.85-7.49,0.9-13.11
			c14.86-30.33,128.87-65.01,133.72-66.47c45.83-13.82,78.4-40.29,89.35-72.61c7.14-21.08,4.31-42.78-7.76-59.52
			c-13.89-19.26-38.38-30.52-72.79-33.45c-81.93-7-198.58,37.03-240.5,78.15c-44.3,43.46-62.74,93.79-54.8,149.59
			c6.72,47.22,70.17,130.64,262.24,108.39c4.01-0.48,7.67,2.42,8.14,6.45c0.47,4.03-2.42,7.68-6.45,8.14
			C289.84,702.2,268.67,703.49,248.67,703.49z"/>
	</g>
	<g>
		<path class="st29" d="M999.48,356.46c-2.51,13.28-7.85,27.68-16.21,42.74C922.17,509.39,707.8,596.85,707.8,596.85
			s12.17,38.19,38.52,106.1c0.61,1.59,1.24,3.18,1.87,4.8c8.14,20.85,17.56,44.39,28.33,70.37c12.61,30.41,27.07,64.2,43.47,100.95
			c39.4,88.35,73.31,204.86,73.31,204.86s94.13,31.98,92.79,90.14c-0.07,3.1-0.41,6.29-1.06,9.53
			c-11.06,55.91-226.74,44.21-244.82,17.73c-21.66-31.7-30.39-59.14-51.76-107.35c-15.82-35.69-32.57-72.56-69.41-102.45
			c-41.66-30.62-110.16-30.97-154.43-26.88c-63.65,5.89-74.17,45.22-82.17,73.73c-13.35,47.44-5.35,145.16-50.63,173.04
			c-24.76,15.25-228.78,38.84-240.65-31.2c-2.41-14.23,0.12-26.15,5.42-36.03c17.4-32.53,64.72-43.23,64.72-43.23
			s-4.73-76.67-0.06-118.84c11.51-104.23,141.13-152,141.13-152s-0.46-10.09-5.35-42.75c-6.05-40.35-12.41-71.48-17.15-92.23
			c-4.54-19.8-7.63-30.21-7.63-30.21l-11.98-35.09L253.5,610l75.02-35.43l283.83-134.04c9.23-5.73,19.47-12.51,30.51-19.99
			c84.01-56.99,214.44-154.8,300.51-142.62C987.25,284.12,1007.37,314.85,999.48,356.46z"/>
	</g>
	<g class="st30">
		<path class="st31" d="M999.48,356.46c-2.51,13.28-7.85,27.68-16.21,42.74C922.17,509.39,707.8,596.85,707.8,596.85
			s12.17,38.19,38.52,106.1l-13.72,6.29c-15.83-48.93-68.59-22.3-72.09-42.09c-1.76-9.98,29.41-19.74,19.58-38.57
			c-9.82-18.83-57.65-7.07-56.84-22.27c0.64-11.65,26.54-9.85,44.38-14.57c17.84-4.72-9.59-30.16-11.49-38.47
			c-2.99-12.99,25.76-1.8,60.24-4.42C857.87,538.13,962.35,409.23,999.48,356.46z"/>
	</g>
	<g class="st30">
		<path class="st31" d="M986.09,1174.06c-0.07,3.1-0.41,6.29-1.06,9.53c-11.06,55.91-226.74,44.21-244.82,17.73
			c-21.66-31.7-30.39-59.14-51.76-107.35c-15.82-35.69-32.57-72.56-69.41-102.45c-41.66-30.62-110.16-30.97-154.43-26.88
			c-63.65,5.89-74.17,45.22-82.17,73.73c-13.35,47.44-5.35,145.16-50.63,173.04c-24.76,15.25-228.78,38.84-240.65-31.2
			c-2.41-14.23,0.12-26.15,5.42-36.03c2.27,13.34,12.61,27.99,42.49,37.48c67.16,21.32,180.28,25.28,195.51-23.51
			c15.22-48.77,5.26-93.57,5.83-135.22c0.45-33.09-3.57-76.08,17.83-89.16c11.24-6.87,25,8.63,42.49,6.45
			c17.47-2.2,17.71-42.01,30.04-42.57c15.21-0.71,12.88,26.08,44.7,36.77c28.73,9.65,102.42,8.09,128.55-17.76
			c24.95-24.68,16.73,19.21,23.32,31.91c12.69,24.5,63.1-16.23,70.29,2.38c3.3,8.57-9.05,40.12-3.09,77.08
			c7.45,46.22,36.2,125.25,93.36,154.7C828.52,1203.66,943.19,1208.21,986.09,1174.06z"/>
	</g>
	<g>
		<path class="st31" d="M214.32,1235.28c-35.42,0-71.11-4.08-96.1-15.41c-19.97-9.05-31.51-21.98-34.3-38.43
			c-8.52-50.29,38.86-77.25,69.71-86.09c-1.02-19.11-3.66-78.19,0.31-114.05c10.68-96.57,115.49-145.58,140.66-156.01
			c-0.58-5.87-1.91-17.27-4.84-36.85c-11.6-77.35-24.42-121-24.55-121.43c-1.15-3.89,1.06-7.98,4.95-9.13
			c3.89-1.16,7.98,1.06,9.13,4.95c0.53,1.8,13.23,44.95,25,123.43c4.9,32.66,5.41,43.09,5.43,43.52l0.24,5.36l-5.04,1.86
			c-1.25,0.46-125.5,47.49-136.38,145.91c-4.54,41.05,0.05,116.83,0.1,117.59l0.38,6.24l-6.09,1.38c-3,0.69-73.57,17.44-64.52,70.86
			c1.92,11.34,10.63,20.6,25.88,27.51c59.62,27.02,188.03,8.31,203.68-1.33c28.39-17.48,33.92-68.45,38.8-113.42
			c2.25-20.71,4.37-40.27,8.61-55.37l0.21-0.73c8.06-28.67,20.23-72.01,88.37-78.31c40.14-3.71,114.23-4.97,159.46,28.28l0.28,0.21
			c38.82,31.49,56.18,70.63,71.49,105.17c5.54,12.5,10.31,23.78,14.51,33.72c12.16,28.77,20.94,49.55,36.59,72.46
			c8.96,13.11,109.9,27.66,182.71,12.76c29.14-5.97,46.48-15.82,48.85-27.76c11.31-57.12-85.92-90.96-86.9-91.3l-3.62-1.23
			l-1.07-3.67c-0.34-1.16-34.23-117.05-72.97-203.91c-77.26-173.2-112.12-281.91-112.47-282.99l-2.06-6.46l6.28-2.56
			c2.12-0.86,212.68-87.76,271.81-194.41c17.71-31.93,21.77-60.94,11.44-81.67c-7.81-15.68-23.69-25.63-45.93-28.77
			c-74.62-10.54-186.82,66.74-268.75,123.17c-21.06,14.51-40.95,28.21-57.37,38.41c-3.44,2.14-7.97,1.08-10.11-2.36
			c-2.14-3.44-1.08-7.97,2.36-10.11c16.12-10.02,35.87-23.62,56.78-38.02c83.92-57.8,198.87-136.98,279.14-125.62
			c27.24,3.85,46.96,16.57,57.02,36.77c12.55,25.19,8.37,59.06-11.75,95.35C933.26,504.53,753.68,585.29,716.91,601
			c8.55,25.56,43.45,126.38,109.78,275.08c35.29,79.12,66.53,181.83,72.6,202.2c19.29,7.25,105.49,43.44,92.95,106.75
			c-3.69,18.64-23.98,31.86-60.31,39.3c-64.05,13.12-181.3,5.28-197.79-18.86c-16.48-24.12-25.5-45.47-37.99-75.02
			c-4.18-9.89-8.92-21.11-14.41-33.49c-14.62-32.98-31.19-70.36-67.18-99.6c-41.33-30.27-111.24-28.9-149.26-25.39
			c-58.08,5.37-67.78,39.91-75.58,67.66l-0.21,0.73c-3.91,13.92-5.97,32.89-8.15,52.97c-5.24,48.32-11.19,103.1-45.7,124.35
			C322.86,1225.55,268.94,1235.28,214.32,1235.28z"/>
	</g>
	<g>
		<g class="st30">
			<path class="st31" d="M642.87,414.06C630.94,515.1,566.72,596,481.06,631.97c-4.73,1.98-9.53,3.83-14.39,5.55
				c-13.34,4.67-27.13,8.3-41.27,10.74c-11.7,2.04-23.68,3.29-35.81,3.69c-14.08,0.49-28.37-0.15-42.83-2.01
				c-4.65-0.63-9.27-1.34-13.84-2.17c-0.13-0.02-0.24-0.05-0.37-0.07c-9.61-1.77-19.03-4.04-28.25-6.8
				c-15.33-4.57-30.03-10.48-44.03-17.55c-27.37-13.82-52.04-32.15-73.19-53.93c-42.36-43.63-70.6-101.05-78.09-163.8
				c71.62-56.42,259.07-109.23,313.26-34.04c30.54,42.33,9.46,114.84-85.41,143.46c-23.24,7-18.52,30.14-8.31,53.06l283.83-134.04
				C621.59,428.32,631.83,421.54,642.87,414.06z"/>
		</g>
		<g>
			<path class="st29" d="M159.13,526.31c34.68,34.84,78.19,61.16,127.54,75.16c10.06,2.85,20.34,5.2,30.83,6.99
				c5.1,0.89,10.29,1.62,15.52,2.27c15.79,1.86,31.42,2.42,46.81,1.77c13.27-0.53,26.37-1.98,39.19-4.26
				c15.49-2.74,30.61-6.73,45.23-11.83c5.33-1.88,10.59-3.89,15.79-6.04c95.02-39.54,166.47-127.84,179.33-237.33
				C678.34,191.75,562.96,45.65,401.7,26.67c-31.06-3.63-61.59-2.33-90.73,3.39c-3.41,0.64-6.82,1.37-10.2,2.18
				c-9.07,2.1-17.99,4.62-26.73,7.55c-20.22,6.78-39.54,15.73-57.61,26.58c-18.08,10.82-34.97,23.58-50.31,37.98
				c-4.88,4.58-9.61,9.31-14.18,14.23c-6.85,7.38-13.33,15.08-19.42,23.19c-30.41,40.24-50.86,88.87-57.16,142.6
				C64.44,377.15,97.99,464.88,159.13,526.31z"/>
			<path class="st31" d="M367.58,613.53c-11.53,0-23.14-0.68-34.64-2.03c-5.76-0.71-10.85-1.45-15.57-2.27
				c-10.31-1.76-20.71-4.12-30.91-7.01c-48.2-13.67-92.42-39.73-127.88-75.36C94.62,462.6,64,374.18,74.58,284.28
				c6.1-52,25.92-101.44,57.31-142.98c5.93-7.89,12.48-15.71,19.47-23.25c4.49-4.84,9.28-9.64,14.22-14.27
				c15.38-14.44,32.35-27.25,50.44-38.08c18.25-10.95,37.69-19.92,57.76-26.65c8.73-2.92,17.75-5.47,26.8-7.57
				c3.61-0.86,6.96-1.58,10.24-2.19c29.72-5.84,60.33-6.98,90.96-3.4c161.44,19,277.34,165.78,258.36,327.22
				c-12.42,105.8-81.31,196.98-179.8,237.96c-5.19,2.15-10.52,4.19-15.83,6.06c-14.83,5.17-30.08,9.17-45.36,11.86
				c-13.04,2.31-26.27,3.75-39.3,4.27C375.79,613.44,371.69,613.53,367.58,613.53z M159.68,525.76
				c35.27,35.44,79.26,61.35,127.2,74.96c10.15,2.87,20.49,5.22,30.75,6.98c4.7,0.82,9.76,1.56,15.49,2.26
				c15.52,1.82,31.23,2.42,46.68,1.76c12.96-0.52,26.11-1.95,39.09-4.25c15.19-2.68,30.37-6.65,45.11-11.8
				c5.28-1.86,10.58-3.89,15.75-6.03c97.97-40.76,166.5-131.46,178.85-236.7c18.88-160.58-96.4-306.6-256.99-325.49
				c-30.46-3.56-60.91-2.42-90.48,3.38c-3.26,0.61-6.59,1.32-10.17,2.18c-9.01,2.09-17.98,4.62-26.67,7.53
				c-19.97,6.7-39.3,15.61-57.46,26.51c-18,10.77-34.88,23.51-50.18,37.88c-4.92,4.61-9.67,9.38-14.14,14.2
				c-6.95,7.49-13.47,15.27-19.37,23.12c-31.23,41.32-50.94,90.5-57.01,142.23C65.6,373.89,96.06,461.84,159.68,525.76
				L159.68,525.76z"/>
		</g>
		<g class="st30">
			<path class="st31" d="M659.37,353.02c-12.84,109.49-84.31,197.81-179.33,237.33c-5.19,2.16-10.45,4.17-15.77,6.04
				c-14.63,5.11-29.74,9.09-45.23,11.84c-12.83,2.26-25.93,3.73-39.19,4.26c-15.4,0.66-31.03,0.09-46.82-1.76
				c-5.23-0.66-10.41-1.39-15.52-2.26c-10.5-1.8-20.77-4.17-30.83-7.01c-49.35-14-92.87-40.31-127.55-75.16
				c-19.05-19.13-35.43-40.84-48.62-64.45c33.85,32.49,75.62,57.04,122.7,70.4c10.06,2.87,20.34,5.21,30.83,7.01
				c5.1,0.89,10.28,1.61,15.52,2.26c15.8,1.85,31.42,2.42,46.81,1.77c13.28-0.54,26.36-2,39.19-4.26
				c15.48-2.75,30.62-6.74,45.23-11.84c5.34-1.88,10.6-3.9,15.79-6.05c95.02-39.52,166.47-127.83,179.33-237.33
				c7.52-63.88-6.07-125.37-35.2-177.51C634.95,167.92,670.57,257.83,659.37,353.02z"/>
		</g>
		<g>
			<path class="st31" d="M367.58,618.74c-11.73,0-23.54-0.69-35.25-2.07c-5.87-0.72-11.05-1.48-15.85-2.32
				c-10.48-1.79-21.06-4.19-31.44-7.13c-49.06-13.92-94.07-40.44-130.15-76.69l0,0C89.8,465.14,58.65,375.16,69.41,283.67
				c6.21-52.92,26.38-103.24,58.33-145.51c6.03-8.02,12.7-15.98,19.81-23.65c4.58-4.93,9.44-9.81,14.47-14.53
				c15.65-14.69,32.92-27.72,51.33-38.74c18.57-11.14,38.35-20.27,58.78-27.12c8.89-2.98,18.07-5.57,27.28-7.71
				c3.66-0.87,7.09-1.61,10.46-2.24c30.21-5.93,61.35-7.1,92.52-3.45c164.3,19.33,282.24,168.71,262.92,333
				c-12.64,107.66-82.75,200.45-182.97,242.16c-5.29,2.19-10.7,4.26-16.09,6.16c-15.11,5.27-30.64,9.33-46.18,12.08
				c-13.27,2.35-26.73,3.82-40,4.35C375.93,618.65,371.76,618.74,367.58,618.74z M163.37,522.09
				c34.64,34.8,77.84,60.26,124.93,73.62c9.97,2.82,20.13,5.13,30.21,6.85c4.62,0.81,9.61,1.53,15.25,2.23
				c15.22,1.79,30.65,2.37,45.83,1.73c12.74-0.51,25.66-1.91,38.4-4.17c14.92-2.64,29.82-6.54,44.31-11.59
				c5.18-1.83,10.39-3.82,15.47-5.92c96.22-40.04,163.53-129.13,175.67-232.5C671.98,194.6,558.74,51.18,401,32.62
				c-29.93-3.5-59.83-2.38-88.87,3.32c-3.22,0.6-6.46,1.29-9.97,2.13c-8.88,2.06-17.69,4.55-26.22,7.4
				c-19.61,6.58-38.6,15.34-56.44,26.04c-17.69,10.58-34.27,23.1-49.3,37.21c-4.83,4.53-9.5,9.22-13.89,13.94
				c-6.83,7.36-13.23,15-19.02,22.71c-30.68,40.59-50.04,88.9-56,139.71C70.96,372.91,100.88,459.3,163.37,522.09L163.37,522.09z"/>
		</g>
		<g>
			<path class="st31" d="M367.58,620.47c-11.8,0-23.68-0.69-35.46-2.08c-5.91-0.73-11.11-1.49-15.95-2.33
				c-10.53-1.8-21.18-4.22-31.61-7.17c-49.35-14-94.61-40.67-130.91-77.14l0,0c-65.46-65.77-96.8-156.27-85.97-248.28
				c6.25-53.22,26.53-103.83,58.67-146.35c6.06-8.07,12.77-16.08,19.92-23.78c4.6-4.96,9.5-9.87,14.56-14.61
				c15.74-14.77,33.11-27.88,51.63-38.97c18.68-11.21,38.57-20.38,59.12-27.27c8.94-3,18.18-5.6,27.44-7.75
				c3.68-0.88,7.14-1.62,10.53-2.25c30.37-5.96,61.69-7.14,93.04-3.47C567.85,38.45,686.47,188.7,667.04,353.93
				c-12.71,108.29-83.23,201.61-184.03,243.56c-5.32,2.2-10.76,4.28-16.18,6.2c-15.2,5.3-30.82,9.39-46.46,12.15
				c-13.35,2.37-26.88,3.84-40.23,4.37C375.98,620.38,371.78,620.47,367.58,620.47z M164.6,520.86
				c34.43,34.59,77.37,59.9,124.18,73.17c9.91,2.81,20.01,5.1,30.03,6.81c4.6,0.8,9.55,1.52,15.16,2.22
				c15.12,1.78,30.46,2.35,45.54,1.72c12.67-0.51,25.5-1.9,38.17-4.15c14.83-2.62,29.64-6.5,44.04-11.52
				c5.15-1.81,10.33-3.8,15.38-5.89c95.64-39.8,162.55-128.35,174.61-231.1C670.15,195.35,557.59,52.79,400.8,34.34
				c-29.75-3.48-59.47-2.37-88.34,3.3c-3.21,0.6-6.42,1.29-9.9,2.12c-8.84,2.05-17.6,4.52-26.07,7.36
				C257,53.65,238.13,62.36,220.4,73c-17.58,10.52-34.06,22.96-49,36.98c-4.8,4.5-9.45,9.16-13.81,13.86
				c-6.79,7.32-13.15,14.91-18.91,22.57c-30.49,40.35-49.74,88.36-55.67,138.86C72.75,372.59,102.48,458.45,164.6,520.86
				L164.6,520.86z"/>
		</g>
		<g>
			<path class="st31" d="M218.69,572.46c199.26,66.75,399.76-81.83,352.87-284.61C539.66,149.88,379.95,74.59,249.4,113.72
				C154.39,142.19,74.09,211.56,77.97,371.1c0,0,12.63,70.36,44.48,110.29c31.85,39.93,69.57,73.39,69.57,73.39L218.69,572.46z"/>
		</g>
		<g>
			<path class="st32" d="M571.55,287.85c46.89,202.78-153.61,351.36-352.86,284.62l-5.4-3.59
				c191.37-21.15,340.44-183.4,296.85-389.31C539.7,208.66,561.7,245.27,571.55,287.85z"/>
		</g>
		<g>
			<path class="st31" d="M367.58,620.47c-11.8,0-23.68-0.69-35.45-2.08c-5.91-0.73-11.11-1.49-15.95-2.33
				c-10.53-1.8-21.18-4.22-31.61-7.17c-49.35-14-94.61-40.67-130.91-77.14l0,0c-65.46-65.77-96.8-156.27-85.97-248.29
				c6.25-53.22,26.53-103.83,58.67-146.35l0.48-0.64l0.61-0.53c29.31-25.53,66.3-45.11,109.94-58.19
				c77.75-23.3,168.09-11.7,241.68,31.05c67.63,39.28,113.85,99.77,130.17,170.34c17.72,76.68,5.89,150.16-34.21,212.49
				c-41.92,65.15-112.5,111.96-193.65,128.43l-1.21,0.15C375.99,620.38,371.79,620.47,367.58,620.47z M164.6,520.86
				c34.43,34.59,77.37,59.9,124.18,73.17c9.91,2.81,20.01,5.1,30.03,6.81c4.6,0.8,9.55,1.52,15.16,2.22
				c14.91,1.75,30.04,2.34,44.93,1.74c76.84-15.75,143.56-60.02,183.14-121.53c37.79-58.74,48.91-128.13,32.15-200.66
				c-15.34-66.36-58.98-123.35-122.88-160.46c-69.96-40.64-155.75-51.71-229.49-29.61c-41.23,12.36-76.09,30.69-103.63,54.51
				c-30.2,40.2-49.27,87.97-55.17,138.21C72.75,372.59,102.48,458.45,164.6,520.86L164.6,520.86z"/>
		</g>
		<g>
			<path class="st31" d="M316.54,596.29c-33.26,0-67.16-5.42-100.3-16.52l-0.96-0.32l-28.38-18.89
				c-1.56-1.38-38.58-34.36-70.48-74.36C83.72,445.22,70.9,375.41,70.37,372.46l-0.12-1.18c-3.4-139.61,56.13-228.76,176.93-264.96
				c69.39-20.8,150.02-10.45,215.68,27.69c60.37,35.06,101.64,89.08,116.21,152.09c21.04,90.98-5.35,178.07-72.38,238.96
				C455.38,571.69,387.41,596.29,316.54,596.29z M222.1,565.46c98.18,32.53,203.17,12.72,274.22-51.82
				c62.77-57.02,87.46-138.68,67.72-224.05c-13.6-58.81-52.28-109.31-108.92-142.21c-62.04-36.04-138.12-45.85-203.5-26.26
				C138.49,155.02,82.66,238.86,85.67,370.29c1.27,6.62,14.03,70.2,42.81,106.29c29.33,36.77,64.19,68.42,68.27,72.08L222.1,565.46z
				"/>
		</g>
		<g>
			<path class="st29" d="M694.4,326.74c-7.2,18.55-19.62,33.03-36.33,39.99c-39.04,16.25-86.72-14.78-106.49-69.29
				c-1.63-4.49-3.02-9.01-4.17-13.51c-12.88-50.21,3.25-99.75,39.07-114.66c39.04-16.25,86.74,14.76,106.51,69.29
				C704.3,269.76,704.02,301.9,694.4,326.74z"/>
		</g>
		<g class="st30">
			<path class="st31" d="M694.4,326.74c-7.2,18.55-19.62,33.03-36.33,39.99c-39.04,16.25-86.72-14.78-106.49-69.29
				c-1.63-4.49-3.02-9.01-4.17-13.51c9.28,8.07,28.59,18.99,46.4-8.13l44.91-1.32C638.72,274.48,673.3,294.31,694.4,326.74z"/>
		</g>
		<g>
			<path class="st31" d="M636.33,378.79c-9.81,0-19.86-2.2-29.83-6.58c-27.23-11.97-49.9-38.27-62.18-72.15
				c-21.12-58.26-3.54-120.13,39.19-137.92c17.07-7.11,35.93-6.54,54.54,1.64c27.23,11.97,49.9,38.27,62.18,72.15l0,0
				c21.12,58.26,3.54,120.13-39.19,137.92C653.12,377.15,644.82,378.79,636.33,378.79z M608.21,172.66
				c-6.49,0-12.79,1.24-18.77,3.73c-35.23,14.67-48.97,67.78-30.61,118.4c10.69,29.49,30.84,53.15,53.88,63.28
				c14.65,6.44,29.31,6.96,42.39,1.52c35.23-14.67,48.97-67.79,30.61-118.4l0,0c-10.69-29.49-30.84-53.15-53.88-63.28
				C623.88,174.41,615.92,172.66,608.21,172.66z"/>
		</g>
		<g>
			
				<ellipse transform="matrix(0.9661 -0.2582 0.2582 0.9661 -47.1715 176.5168)" class="st29" cx="648.42" cy="267.84" rx="62.26" ry="83.45"/>
			<path class="st31" d="M657.96,350.87c-2.31,0-4.66-0.16-7.03-0.48c-35.57-4.85-65.7-45.78-67.16-91.23
				c-0.82-25.45,7.41-47.89,22.57-61.56c11.16-10.06,24.84-14.32,39.56-12.31c35.57,4.85,65.7,45.78,67.16,91.23
				c0.82,25.45-7.41,47.89-22.57,61.56C681.13,346.52,669.99,350.87,657.96,350.87z M638.88,186.43c-11.64,0-22.4,4.21-31.46,12.38
				c-14.81,13.35-22.84,35.33-22.04,60.3c1.43,44.7,30.94,84.93,65.76,89.68c14.24,1.93,27.46-2.18,38.26-11.91
				c14.81-13.35,22.84-35.33,22.04-60.3c-1.43-44.7-30.94-84.93-65.76-89.68C643.39,186.58,641.12,186.43,638.88,186.43z"/>
		</g>
		<g class="st30">
			<path class="st31" d="M605.18,321.12c-8.85-13.1-14.14-28.68-15.91-44.46c22.7,28.17,56.72,30.69,78.47,4.66
				c14.06-16.81,19.75-41.7,17-66.12c1.44,1.77,2.83,3.67,4.18,5.66c22.52,33.37,22.04,82.87-1.09,110.56
				C664.69,359.1,627.69,354.47,605.18,321.12z"/>
		</g>
		<g>
			<path class="st31" d="M661.34,357.17c-7.29,0-14.79-1.64-22.26-4.91c-21.99-9.62-41.27-32.54-51.58-61.33
				c-17.57-49.05-5.01-98.67,28.59-112.97c12.67-5.39,26.78-5,40.8,1.13c21.99,9.62,41.27,32.54,51.58,61.33
				c17.57,49.05,5.01,98.67-28.59,112.97C673.96,355.92,667.73,357.17,661.34,357.17z M634.61,189.66c-4.35,0-8.54,0.84-12.49,2.52
				c-25.65,10.92-34.67,52.89-20.1,93.55c8.9,24.86,25.07,44.44,43.23,52.39c10.03,4.38,19.91,4.76,28.57,1.07
				c25.65-10.92,34.67-52.89,20.1-93.55c-8.9-24.86-25.07-44.44-43.23-52.39C645.23,190.86,639.81,189.66,634.61,189.66z"/>
		</g>
		<g class="st33">
			<path class="st12" d="M336.38,149.55c0,0-119.78,44.39-165.87,134.81c-0.05,0.1-0.1,0.19-0.15,0.29
				c-9.69,19.04-14.04,40.36-12.77,61.69c1.68,28.2,6.96,47.39,12.27,64.1c16.16,50.82,33.24,71.61,33.24,71.61
				c-37.44-17.66-63.42-42.97-77.3-85.17c-1.36-4.16-2.6-8.51-3.74-13.01c-0.27-1.04-0.51-2.07-0.73-3.11
				c-0.03,0-0.02-0.03-0.01-0.06c-1.66-9.27-3.39-21.54-4.18-35.54c-2.41-42.23,3.56-100.21,45.03-139.42
				C239.68,132.43,338.88,142.91,336.38,149.55z"/>
		</g>
		<g class="st33">
			
				<ellipse transform="matrix(0.8423 -0.539 0.539 0.8423 -57.7845 290.4244)" class="st12" cx="467.46" cy="243.97" rx="39.3" ry="45.8"/>
		</g>
		<g class="st33">
			
				<ellipse transform="matrix(0.7938 -0.6082 0.6082 0.7938 -85.367 376.3212)" class="st12" cx="512.31" cy="314.06" rx="16.23" ry="18.91"/>
		</g>
	</g>
	<g>
		
			<ellipse transform="matrix(0.9985 -0.0551 0.0551 0.9985 -42.1504 17.8026)" class="st12" cx="301.93" cy="773.67" rx="38.92" ry="38.92"/>
	</g>
	<g class="st30">
		<path class="st31" d="M263.83,781.56c4.36,21.05,24.95,34.59,46,30.23c21.05-4.36,34.59-24.98,30.23-46.03
			c-1.21-5.81-3.66-11.09-7.04-15.53c-3.45,14.14-14.74,25.8-29.94,28.95c-15.2,3.15-30.2-3.06-38.95-14.67
			C262.77,769.93,262.62,775.74,263.83,781.56z"/>
	</g>
	<g>
		<path class="st31" d="M301.92,819.94c-21.47,0-40.77-15.05-45.29-36.88l0,0c-2.51-12.1-0.15-24.45,6.63-34.78
			c6.78-10.33,17.18-17.4,29.28-19.91c24.97-5.17,49.51,10.93,54.69,35.91c5.18,24.98-10.93,49.52-35.91,54.69
			C308.17,819.62,305.02,819.94,301.92,819.94z M271.01,780.07c3.53,17.05,20.28,28.05,37.33,24.51
			c17.05-3.53,28.04-20.28,24.51-37.33c-3.53-17.05-20.27-28.04-37.33-24.51c-8.26,1.71-15.36,6.54-19.99,13.59
			C270.91,763.38,269.3,771.81,271.01,780.07L271.01,780.07z"/>
	</g>
	<g>
		<g>
			<path class="st29" d="M350.49,870.95l196.61-15.3c23.27-1.8,40.85-22.33,39.04-45.63l-8.15-104.62
				c-1.59-20.4-17.53-36.39-37.1-38.84c-2.77-0.37-5.62-0.42-8.53-0.2l-196.58,15.3c-23.3,1.81-40.88,22.33-39.04,45.63l6.43,82.87
				l1.68,21.76C306.67,855.21,327.22,872.75,350.49,870.95z"/>
		</g>
		<g>
			<path class="st29" d="M739.69,677.84c0,0,26.09-0.53,33.96,29.58c5.02,19.2-5.79,41.06-5.79,41.06s-71.89,40.46-195.14,41.08
				c0,0-39.08-34.39-3.08-69.4C569.64,720.16,681.98,710.71,739.69,677.84z"/>
		</g>
		<g>
			<path class="st29" d="M350.49,870.95l196.61-15.3c23.27-1.8,40.85-22.33,39.04-45.63l-8.15-104.62
				c-1.59-20.4-17.53-36.39-37.1-38.84c-2.77-0.37-5.62-0.42-8.53-0.2l-196.58,15.3c-23.3,1.81-40.88,22.33-39.04,45.63l6.43,82.87
				l1.68,21.76C306.67,855.21,327.22,872.75,350.49,870.95z"/>
		</g>
		<g>
			<path class="st29" d="M739.69,677.84c0,0,26.09-0.53,33.96,29.58c5.02,19.2-5.79,41.06-5.79,41.06s-71.89,40.46-195.14,41.08
				c0,0-39.08-34.39-3.08-69.4C569.64,720.16,681.98,710.71,739.69,677.84z"/>
		</g>
		<g class="st30">
			<path class="st31" d="M601.37,836.32c1.8,23.3-15.77,43.82-39.05,45.64l-196.6,15.29c-23.28,1.8-43.82-15.74-45.64-39.05
				l-1.67-21.75l-6.44-82.87c-1.84-23.29,15.74-43.82,39.03-45.62l196.58-15.29c2.9-0.22,5.75-0.17,8.52,0.19
				c19.57,2.46,35.52,18.44,37.1,38.84l1.08,13.83c26.93-2.94,105.4-13.24,153.89-37.77c8.14,20.85,10.39,26.95,21.15,52.93
				c-23.54,20.2-62.95,48.96-169.58,54.98L601.37,836.32z"/>
		</g>
		<g>
			<path class="st12" d="M350.49,870.95l196.61-15.3c23.27-1.8,40.85-22.33,39.04-45.63l-8.15-104.62
				c-1.59-20.4-17.53-36.39-37.1-38.84c-2.77-0.37-5.62-0.42-8.53-0.2l-196.58,15.3c-23.3,1.81-40.88,22.33-39.04,45.63l6.43,82.87
				l1.68,21.76C306.67,855.21,327.22,872.75,350.49,870.95z"/>
		</g>
		<g class="st30">
			<path class="st31" d="M350.49,870.95l196.61-15.3c23.27-1.8,40.85-22.33,39.04-45.63l-8.15-104.62
				c-1.59-20.4-17.53-36.39-37.1-38.84c-10.59,8.28-17.31,13.58-17.31,13.58c-3.04,84.73,5.5,146.7-125.48,148.2
				c-45.15,0.52-76.28-10.34-94.92-18.18l1.68,21.76C306.67,855.21,327.22,872.75,350.49,870.95z"/>
		</g>
		<g>
			<path class="st31" d="M347.17,878.42c-25.73,0-47.59-19.87-49.62-45.95l-8.14-104.64c-2.13-27.38,18.41-51.39,45.79-53.52
				l196.59-15.3c13.22-1.02,26.08,3.18,36.21,11.85c10.13,8.67,16.28,20.73,17.31,33.94l8.14,104.64
				c2.13,27.38-18.41,51.39-45.79,53.52l-196.59,15.3C349.76,878.38,348.46,878.42,347.17,878.42z M535.68,673.56
				c-0.91,0-1.83,0.03-2.75,0.11l-196.59,15.3c-19.3,1.5-33.79,18.43-32.29,37.73l8.14,104.64c0.72,9.31,5.06,17.8,12.21,23.92
				c7.15,6.12,16.21,9.07,25.52,8.37l196.59-15.3c19.31-1.5,33.79-18.43,32.29-37.73l-8.14-104.64
				C569.24,687.58,553.82,673.56,535.68,673.56z"/>
		</g>
		<g>
			<path class="st12" d="M342.54,870.79c2.59,0.33,5.23,0.39,7.95,0.16l196.61-15.3c17.05-1.33,31.04-12.69,36.58-27.88
				c2.02-5.52,2.93-11.54,2.43-17.75l-3.6-46.48l-1.19-15.34l-3.33-42.81c-1.81-23.3-22.36-40.84-45.63-39.04l-42.48,3.32
				c19.87,2.17,36.12,18.27,37.74,38.87l4.41,56.51l3.74,48.14c1.8,23.27-15.77,43.83-39.04,45.63L342.54,870.79z"/>
		</g>
		<g class="st30">
			<path class="st31" d="M342.54,870.79c2.59,0.33,5.23,0.39,7.95,0.16l196.61-15.3c23.27-1.8,40.85-22.33,39.01-45.63l-4.79-61.82
				c-4.1,11.31-11.94,25.4-26.04,27.92c-7.74,1.4-15.85-3.62-23.25-11.07l3.74,48.14c1.8,23.27-15.77,43.83-39.04,45.63
				L342.54,870.79z"/>
		</g>
		<g>
			<path class="st31" d="M347.25,878.42c-1.87,0-3.74-0.11-5.6-0.34l0.31-14.62l154.2-11.98c9.3-0.72,17.79-5.05,23.9-12.2
				c6.12-7.16,9.09-16.22,8.36-25.52l-8.14-104.64c-1.31-16.8-14.43-30.32-31.2-32.17l0.23-14.62l42.46-3.31
				c13.23-1.03,26.09,3.19,36.22,11.86c10.14,8.67,16.28,20.73,17.3,33.95l8.14,104.63c1.04,13.22-3.17,26.08-11.85,36.22
				c-8.67,10.14-20.72,16.28-33.93,17.3l-196.6,15.29C349.8,878.37,348.53,878.42,347.25,878.42z M518.52,674.79
				c9.28,8.32,15.4,20.05,16.42,33.2l8.14,104.64c1.04,13.21-3.17,26.08-11.85,36.22c-0.21,0.25-0.42,0.49-0.64,0.73l15.94-1.24
				c9.3-0.72,17.78-5.05,23.9-12.21c6.12-7.16,9.09-16.22,8.36-25.53v0l-8.14-104.63c-0.72-9.31-5.05-17.8-12.21-23.92
				c-7.15-6.12-16.2-9.11-25.53-8.38L518.52,674.79z"/>
		</g>
		<g>
			<path class="st34" d="M454.24,767.75c0.32,3.87,8.37,34.63,8.37,34.63s9.89-0.83,22.03-1.84c15.17-1.27,26.16-18,24.54-37.38
				s-15.23-34.06-30.4-32.79c-10.24,0.86-22.03,1.84-22.03,1.84S453.71,761.45,454.24,767.75z"/>
		</g>
		<g class="st30">
			<path class="st31" d="M454.24,767.75c0.32,3.87,8.37,34.63,8.37,34.63s9.89-0.83,22.03-1.84c15.17-1.27,26.16-18,24.54-37.38
				s-15.23-34.06-30.4-32.79c-10.24,0.86-22.03,1.84-22.03,1.84S453.71,761.45,454.24,767.75z"/>
		</g>
		<g>
			<path class="st31" d="M458.45,808.26l-1.17-4.48c-1.92-7.33-8.19-31.54-8.53-35.57v0c-0.55-6.62,2.2-33.52,2.51-36.56l0.47-4.54
				l26.58-2.22c9.05-0.76,17.86,2.93,24.78,10.4c6.58,7.09,10.68,16.83,11.57,27.42c1.87,22.37-11.39,41.81-29.57,43.33
				L458.45,808.26z M459.73,767.28c0.22,2.14,3.57,15.8,7.05,29.22l17.41-1.46c12.12-1.01,20.87-15.11,19.51-31.43
				c-0.68-8.15-3.76-15.56-8.67-20.85c-4.57-4.92-10.19-7.38-15.78-6.91l-17.47,1.46C460.68,748.48,459.42,763.59,459.73,767.28z"/>
		</g>
		<g>
			
				<ellipse transform="matrix(0.9965 -0.0833 0.0833 0.9965 -62.3076 40.9501)" class="st34" cx="459.67" cy="767.29" rx="27.57" ry="35.21"/>
		</g>
		<g class="st30">
			<path class="st31" d="M487.14,765.01c1.63,19.37-9.36,36.11-24.53,37.38c-15.19,1.27-28.8-13.42-30.41-32.81
				c-0.23-2.61-0.21-5.2,0.03-7.7c5.01,12.98,15.86,21.63,27.64,20.63c13.1-1.1,23.1-13.73,24.5-29.66
				C485.83,756.58,486.77,760.68,487.14,765.01z"/>
		</g>
		<g>
			<path class="st12" d="M487.14,765.01c0.11,1.32,0.16,2.62,0.14,3.92c-4.28-14.93-16-25.25-28.82-24.18
				c-14.13,1.19-24.66,15.81-24.67,33.49c-0.8-2.76-1.33-5.64-1.59-8.65c-1.63-19.37,9.36-36.11,24.53-37.38
				C471.91,730.95,485.51,745.62,487.14,765.01z"/>
		</g>
		<g>
			<path class="st31" d="M460.8,807.96c-17.25,0-32.3-16.47-34.09-37.91l0,0c-0.89-10.59,1.55-20.88,6.86-28.96
				c5.58-8.51,13.65-13.61,22.71-14.37c18.19-1.52,34.48,15.45,36.35,37.82c0.89,10.59-1.55,20.88-6.86,28.96
				c-5.58,8.51-13.65,13.61-22.71,14.37C462.31,807.93,461.55,807.96,460.8,807.96z M437.69,769.13
				c1.36,16.32,12.36,28.73,24.46,27.76c5.61-0.47,10.73-3.82,14.42-9.43c3.96-6.03,5.77-13.85,5.09-22
				c-1.37-16.32-12.37-28.77-24.46-27.76c-5.61,0.47-10.73,3.82-14.42,9.43C438.82,753.17,437.01,760.98,437.69,769.13
				L437.69,769.13z"/>
		</g>
		<g>
			<path class="st31" d="M411.55,870.94c-2.79,0-5.19-2.11-5.47-4.95l-6.47-63.68c-0.37-3.64-2.52-6.82-5.76-8.52l-19.55-10.27
				c-6.68-3.51-11.03-10.09-11.64-17.61l-6.97-85.74c-0.25-3.03,2.01-5.69,5.04-5.94c3.03-0.21,5.69,2.01,5.94,5.04l6.97,85.74
				c0.3,3.73,2.47,7,5.78,8.75l19.55,10.26c6.52,3.42,10.85,9.84,11.6,17.16l6.47,63.68c0.31,3.03-1.9,5.73-4.92,6.04
				C411.92,870.93,411.73,870.94,411.55,870.94z"/>
		</g>
	</g>
	<g>
		<path class="st12" d="M739.69,677.84c0,0,26.09-0.53,33.96,29.58c5.02,19.2-5.79,41.06-5.79,41.06s-71.89,40.46-195.14,41.08
			c0,0-39.08-34.39-3.08-69.4C569.64,720.16,681.98,710.71,739.69,677.84z"/>
	</g>
	<g class="st30">
		<path class="st31" d="M767.87,748.49c0,0-71.88,40.45-195.14,41.07c0,0-25.5-22.42-16.35-49.49c0.05,0.14,0.1,0.29,0.15,0.43
			c5.14,14.47,19.31,23.84,34.65,23.25c111.73-4.31,176.33-40.66,176.33-40.66s3.62-7.34,5.7-17.23c0.15,0.51,0.31,1.04,0.44,1.57
			C778.66,726.62,767.87,748.49,767.87,748.49z"/>
	</g>
	<g>
		<path class="st31" d="M582.79,796.76c-9.71,0-18.79-4.66-24.43-12.55c-14.35-20.1-15.1-41.31-2.12-59.71
			c4.95-7.02,12.73-11.57,21.33-12.51c23.49-2.54,103.87-12.71,152.11-37.12l0,0c7.93-4.02,17.03-4.44,24.94-1.17
			c9.1,3.76,21.03,12.35,26.13,31.86c3.39,12.96,0.64,26.58-2.26,35.73c-2.51,7.92-8.34,14.5-16,18.06
			c-22.61,10.5-85.31,35.16-178.98,37.39C583.27,796.76,583.03,796.76,582.79,796.76z M743.56,686.21c-2.44,0-4.92,0.59-7.24,1.77
			l0,0c-49.08,24.83-126.26,35.28-157.16,38.62c-4.41,0.48-8.39,2.8-10.91,6.37c-9.37,13.28-8.67,27.65,2.07,42.71
			c2.94,4.12,7.72,6.49,12.85,6.39c90.91-2.17,151.37-25.92,173.14-36.03c3.94-1.83,6.92-5.17,8.19-9.17
			c2.31-7.3,4.55-18.02,2.05-27.58c-2.87-10.98-8.77-18.38-17.53-22C747.29,686.57,745.44,686.21,743.56,686.21z M733,681.43h0.02
			H733z"/>
	</g>
	<g>
		<path class="st29" d="M206.95,591.42c-8.34-21.71,88.1-57.31,129.89-69.91c94.89-28.62,115.96-101.11,85.43-143.46
			c-57.32-79.5-263.56-15.92-324.39,43.75c-21.69,21.27-68.65,73.52-56.93,155.87"/>
	</g>
	<g class="st30">
		<path class="st31" d="M336.84,521.51c-39.02,11.74-125.64,43.55-130.21,65.4c-77.37-37.23,61.67-78.86,101.85-89.75
			c79.22-21.5,120.76-59.23,125.41-92.35C442.18,446.24,413.78,498.31,336.84,521.51z"/>
	</g>
	<g class="st30">
		<path class="st31" d="M216.62,591.28l-10.18-2.72c-0.01-0.55,0.06-1.1,0.18-1.66C209.49,588.41,212.82,589.87,216.62,591.28z"/>
	</g>
	<g>
		<path class="st31" d="M206.95,598.77c-2.95,0-5.74-1.79-6.86-4.71c-1.11-2.88-1.85-7.49,0.9-13.11
			c14.86-30.33,128.87-65.01,133.72-66.47c45.83-13.82,78.4-40.29,89.35-72.61c7.14-21.08,4.31-42.78-7.76-59.52
			c-13.89-19.26-38.38-30.52-72.79-33.45c-81.93-7-198.58,37.03-240.5,78.15c-44.3,43.46-62.74,93.79-54.8,149.59
			c0.57,4.02-2.22,7.73-6.24,8.31c-4.01,0.57-7.73-2.22-8.31-6.24c-8.63-60.69,11.24-115.24,59.06-162.15
			c45.03-44.16,164.93-89.74,252.04-82.3c38.87,3.32,66.95,16.61,83.45,39.5c14.89,20.64,18.44,47.19,9.76,72.82
			c-12.49,36.88-48.58,66.75-99.02,81.96c-54.13,16.33-117.22,43.48-124.77,58.87c-0.35,0.72-0.45,1.22-0.38,1.37
			c1.45,3.79-0.43,8.04-4.22,9.49C208.71,598.61,207.82,598.77,206.95,598.77z"/>
	</g>
	<g>
		<path class="st31" d="M873.37,513.84c-1.15,0-2.31-0.3-3.36-0.94c-79.65-48.43-109.26-167.57-110.48-172.62
			c-0.84-3.48,1.29-6.98,4.77-7.82c3.47-0.84,6.98,1.29,7.82,4.77c0.29,1.19,29.6,118.99,104.62,164.6c3.06,1.86,4.03,5.84,2.17,8.9
			C877.69,512.73,875.55,513.84,873.37,513.84z"/>
	</g>
	<g>
		<path class="st31" d="M227.58,572.96c-0.02,0-0.03,0-0.05,0c-41.91-0.3-79.55-21.73-103.28-58.81
			c-22.76-35.57-27.66-78.08-12.77-110.94c1.48-3.26,5.31-4.7,8.57-3.23c3.26,1.48,4.7,5.31,3.23,8.57
			c-13.09,28.91-8.54,66.69,11.88,98.61c21.32,33.32,55.02,52.58,92.46,52.84c3.58,0.03,6.46,2.95,6.43,6.52
			C234.03,570.08,231.14,572.96,227.58,572.96z"/>
	</g>
	<g>
		<path class="st31" d="M386,1032.65c-2.91,0-5.55-1.97-6.28-4.92c-13.65-55.07-152.98-79.94-205.51-84.88
			c-3.56-0.34-6.18-3.49-5.84-7.06c0.34-3.56,3.5-6.18,7.05-5.85c8.09,0.76,198.23,19.44,216.88,94.66
			c0.86,3.47-1.26,6.98-4.73,7.85C387.04,1032.59,386.52,1032.65,386,1032.65z"/>
	</g>
	<g>
		<path class="st31" d="M673.02,1048.2c-4.2,0-8.09-0.17-11.62-0.52c-3.56-0.35-6.16-3.53-5.8-7.09c0.35-3.56,3.52-6.16,7.09-5.8
			c50.25,5.01,175.11-28.13,185.54-70.45c0.86-3.47,4.37-5.6,7.84-4.74c3.47,0.86,5.6,4.36,4.74,7.84
			c-7.89,32.02-57.91,52.83-87.02,62.38C739.18,1041.17,699.93,1048.2,673.02,1048.2z"/>
	</g>
	<g>
		<path class="st31" d="M159.45,1093.84c1.47-0.4,2.48-0.63,3.67-0.88c1.16-0.28,2.27-0.41,3.41-0.62c2.25-0.35,4.51-0.65,6.75-0.82
			c4.48-0.46,8.94-0.49,13.39-0.5c8.89,0.15,17.67,1.08,26.33,2.54c8.64,1.53,17.17,3.47,25.42,6.33c2.08,0.62,4.11,1.44,6.14,2.25
			c2.03,0.79,4.05,1.61,6.04,2.48c3.97,1.8,7.86,3.81,11.65,6.02c-4.43-0.1-8.72-0.5-12.98-0.93c-4.3-0.27-8.5-0.79-12.72-1.17
			l-12.57-1.14c-2.09-0.16-4.16-0.45-6.24-0.57l-6.23-0.39c-8.3-0.42-16.56-0.63-24.74-0.37c-4.08,0.1-8.16,0.33-12.17,0.65
			c-2.02,0.14-3.99,0.39-5.97,0.58l-2.9,0.37c-0.91,0.11-2,0.29-2.6,0.39l-0.57,0.09c-4,0.66-7.77-2.05-8.43-6.04
			C153.53,1098.38,155.88,1094.83,159.45,1093.84z"/>
	</g>
	<g>
		<path class="st31" d="M790.33,1128.57c3.04-9.7,9.27-18.28,16.62-25.52c7.38-7.33,16.35-12.95,25.83-17.42
			c4.84-1.93,9.7-4.01,14.78-5.26c2.52-0.67,5.03-1.53,7.6-1.94l7.71-1.32c2.57-0.51,5.17-0.63,7.76-0.79
			c2.59-0.18,5.18-0.33,7.78-0.44c5.17,0.01,10.32,0.39,15.46,0.72c4.04,0.27,7.09,3.76,6.83,7.79c-0.25,3.83-3.4,6.77-7.16,6.84
			l-0.78,0.01c-4.71,0.08-9.41-0.1-14.09-0.11c-2.33,0.15-4.65,0.28-6.98,0.37c-2.33,0.09-4.67,0.16-6.95,0.54l-6.91,0.83
			c-1.17,0.09-2.29,0.36-3.41,0.61l-3.4,0.69c-4.62,0.69-8.92,2.33-13.43,3.51c-8.75,3.03-17.09,7.2-25.06,12.25
			C804.56,1115.05,797.07,1121.12,790.33,1128.57z"/>
	</g>
</g>
</svg>
